<svg id="Camada_1" xmlns="http://www.w3.org/2000/svg" version="1.1" viewBox="0 0 189 31">
  <!-- Generator: Adobe Illustrator 29.0.1, SVG Export Plug-In . SVG Version: 2.1.0 Build 192)  -->
  <defs>
    <style>
      .st0 {
        fill: #053c97;
      }
    </style>
  </defs>
  <g>
    <g>
      <path class="st0" d="M18.5,6c-1.4-1.8-3.4-2.7-5.7-2.7s-3.8.7-5,2c-1.2,1.4-1.8,3.3-1.8,5.7s.6,4.4,1.8,5.8c1.2,1.4,2.9,2.1,5.1,2.1s1.7-.1,2.4-.3c.8-.2,1.5-.5,2.2-.9.7-.4,1.3-.9,1.9-1.4.6-.5,1-1.2,1.4-1.8l.4.3c-.7,1.3-1.3,2.3-1.9,3.2-.6.8-1.2,1.5-1.9,2.1-.7.5-1.4.9-2.1,1.1s-1.6.3-2.6.3c-1.5,0-2.9-.2-4.1-.7s-2.2-1.2-3.1-2.1c-.8-.9-1.5-2-1.9-3.3-.4-1.3-.7-2.7-.7-4.2s.2-3,.7-4.3c.5-1.3,1.1-2.4,2-3.3.8-.9,1.9-1.6,3.1-2.1,1.2-.5,2.5-.8,4-.8s3,.3,4.3.9c1.3.6,2.4,1.5,3.3,2.7l-2,1.9Z"/>
      <path class="st0" d="M23.9,3c0-.5.1-.9.4-1.2.3-.3.7-.4,1.2-.4s.9.1,1.2.4c.3.3.4.7.4,1.2s-.1.9-.4,1.2c-.3.3-.7.4-1.2.4s-.9-.1-1.2-.4c-.3-.3-.4-.7-.4-1.2ZM24.3,6.6h2.6v14.5h-2.6V6.6Z"/>
      <path class="st0" d="M33,6.6v8.6c.3-1.3.7-2.5,1-3.6.3-1.1.7-2,1.1-2.7.4-.7.8-1.3,1.2-1.7.4-.4.9-.6,1.4-.6h1.6v2.5h-1.6c-.5,0-1,.2-1.5.7-.5.5-.9,1.1-1.2,1.9-.4.8-.7,1.8-1.1,2.8-.3,1.1-.6,2.2-.9,3.5v3h-2.6V6.6h2.6Z"/>
      <path class="st0" d="M47.5,19.1c1.2,0,2.3-.3,3.4-.9,1.1-.6,1.9-1.4,2.5-2.4l.4.3c-.5,1-1,1.8-1.5,2.5-.5.7-1,1.2-1.5,1.6-.5.4-1.1.7-1.6.9-.6.2-1.2.3-1.9.3-1,0-2-.2-2.8-.5-.8-.3-1.6-.8-2.2-1.5-.6-.6-1-1.4-1.4-2.3-.3-.9-.5-2-.5-3.1s.2-2.2.5-3.2c.3-.9.8-1.7,1.5-2.4.6-.7,1.4-1.2,2.3-1.5.9-.3,1.8-.5,2.9-.5s2.6.3,3.5.9c.9.6,1.7,1.4,2.3,2.4l-1.8,1.4c-.5-.8-1-1.4-1.7-1.8-.6-.4-1.4-.7-2.3-.7-1.3,0-2.4.5-3.3,1.4-.8.9-1.3,2.2-1.3,3.9s.4,2.9,1.2,3.8c.8.9,1.9,1.3,3.3,1.3Z"/>
      <path class="st0" d="M56.1,6.6h2.6v9.9c0,1.5.7,2.3,2.1,2.3s2.6-.7,3.6-2.2c1-1.5,1.9-3.8,2.8-7v-3h2.6v14.5h-2.6v-8.8c-.9,2.9-2,5.1-3.3,6.7-1.3,1.6-2.8,2.4-4.4,2.4s-3.3-1.3-3.3-4V6.6Z"/>
      <path class="st0" d="M72.9,3c0-.5.1-.9.4-1.2s.7-.4,1.2-.4.9.1,1.2.4c.3.3.4.7.4,1.2s-.1.9-.4,1.2c-.3.3-.7.4-1.2.4s-.9-.1-1.2-.4c-.3-.3-.4-.7-.4-1.2ZM73.2,6.6h2.6v14.5h-2.6V6.6Z"/>
      <path class="st0" d="M85.6,6.6v.9h-2.5v9.7c0,.7.1,1.2.4,1.5.3.3.7.4,1.3.4s1,0,1.4-.3c.5-.2.8-.5,1.2-.9l.4.3c-.4.7-.8,1.2-1.2,1.6-.3.4-.7.7-1,1-.3.2-.6.4-.9.5-.3,0-.6.1-.9.1-1,0-1.9-.4-2.4-1.1-.6-.7-.9-1.7-.9-3V7.5h-2.1v-.9l4.7-2.5v2.5h2.5Z"/>
      <path class="st0" d="M89,13.9c0-1.1.2-2.1.5-3,.3-.9.8-1.7,1.5-2.4.6-.7,1.4-1.2,2.3-1.6.9-.4,1.9-.6,3-.6s2.1.2,3,.6c.9.4,1.7.9,2.3,1.6.6.7,1.1,1.5,1.5,2.4.3.9.5,1.9.5,3s-.2,2.1-.5,3c-.3.9-.8,1.7-1.5,2.4-.6.7-1.4,1.2-2.3,1.6-.9.4-1.9.6-3,.6s-2.1-.2-3-.6c-.9-.4-1.7-.9-2.3-1.6-.6-.7-1.1-1.5-1.5-2.4-.3-.9-.5-1.9-.5-3ZM91.7,13.9c0,.8.1,1.4.3,2.1.2.6.5,1.2.9,1.6.4.5.9.8,1.5,1.1s1.2.4,2,.4,1.4-.1,2-.4c.6-.3,1.1-.6,1.5-1.1.4-.5.7-1,.9-1.6.2-.6.3-1.3.3-2.1s-.1-1.4-.3-2.1c-.2-.6-.5-1.2-.9-1.6-.4-.5-.9-.8-1.5-1.1-.6-.3-1.2-.4-2-.4s-1.4.1-2,.4c-.6.3-1.1.6-1.5,1.1-.4.5-.7,1-.9,1.6-.2.6-.3,1.3-.3,2.1Z"/>
    </g>
    <g>
      <path class="st0" d="M119.6.5h-5.6l-7.1,20.2h3.1l6.8-19.4,2.7,6.8c-3,3.6-4.5,6.5-4.5,8.8s.4,2.3,1.3,3c.8.7,2,1.1,3.5,1.1s2.1-.2,3-.6c.8-.4,1.5-.9,1.9-1.6.4-.7.6-1.5.7-2.5,0-1-.2-2-.7-3.1l-5.1-12.7ZM122.2,17.5c-.3.9-1.2,1.4-2.5,1.4s-1.8-.2-2.4-.7c-.6-.5-.9-1.2-.9-2s0-.9.2-1.5c.2-.5.4-1.1.7-1.7.3-.6.7-1.2,1.1-1.9.4-.6.9-1.3,1.4-1.9l1.8,4.4c.7,1.8.9,3.1.6,4Z"/>
      <path class="st0" d="M144.5,3.4c-.9-.9-1.9-1.6-3.2-2.1-1.2-.5-2.6-.7-4.1-.7s-2.8.2-4.1.7c-1.2.5-2.3,1.2-3.2,2.1-.9.9-1.6,2-2,3.2-.5,1.3-.7,2.7-.7,4.2s.2,3,.7,4.2c.5,1.3,1.2,2.3,2.1,3.2s2,1.6,3.2,2.1c1.3.5,2.7.7,4.2.7.2.6.4,1.1.6,1.6.3.5.6.9.9,1.3.4.4.8.7,1.3.9.5.2,1.1.3,1.9.3s.5,0,.7,0c.2,0,.4,0,.6-.1l.7-2.9c-.7.1-1.3.2-1.8.2-.8,0-1.5-.1-2-.4-.5-.2-1-.6-1.3-1,1.2-.2,2.3-.6,3.3-1.1,1-.6,1.8-1.3,2.5-2.2.7-.9,1.2-1.9,1.6-3,.4-1.1.6-2.4.6-3.8s-.2-2.9-.7-4.2c-.5-1.3-1.2-2.3-2-3.2ZM133.4,17.4c-1-.6-1.7-1.4-2.3-2.5.7-.4,1.3-.7,1.8-.9.5-.2.9-.3,1.3-.3s.8.1,1.1.4c.3.3.5.6.7,1,.2.4.3.9.5,1.5.1.5.3,1.1.4,1.7-1.4,0-2.5-.4-3.5-.9ZM142.7,16.2c-1.1,1.3-2.6,2-4.6,2.2-.2-.7-.3-1.3-.4-2,0-.7-.2-1.3-.4-1.8-.2-.5-.5-1-.8-1.3-.3-.3-.9-.5-1.5-.5-1.1,0-2.5.5-4.2,1.6-.2-.5-.3-1-.4-1.6,0-.6-.1-1.2-.1-1.8,0-2.4.6-4.3,1.9-5.6,1.2-1.3,3-2,5.2-2s3.9.7,5.2,2c1.2,1.3,1.9,3.2,1.9,5.6s-.5,4-1.6,5.3Z"/>
      <path class="st0" d="M182.9,20.8h3.1l-7.1-20.2h-5.6l-3.1,7.7h-4.4v-2c0-2.1-.5-3.6-1.5-4.6-1-1-2.6-1.5-4.7-1.5s-1.7,0-2.4.2c-.6.2-1.1.4-1.5.7-.4.3-.6.6-.8,1-.2.4-.2.8-.2,1.2,0,.6.1,1.2.4,1.8.3.6.8,1.1,1.4,1.6.7.5,1.5.9,2.6,1.3,1,.4,2.3.7,3.8.8v4c0,1.9-.4,3.3-1.3,4.3-.9,1-2.2,1.5-4,1.5s-2.8-.5-3.5-1.4c-.7-.9-1.1-2.4-1.1-4.4V.5h-2.9v12.8c0,5.1,2.5,7.7,7.5,7.7s4.6-.7,6-2c1.4-1.3,2.1-3.2,2.1-5.7v-4.3h4l-1.7,4.2c-.5,1.1-.7,2.2-.7,3.1,0,1,.2,1.8.7,2.5.4.7,1.1,1.2,1.9,1.6.8.4,1.8.6,3,.6s2.7-.4,3.5-1.1c.8-.7,1.3-1.7,1.3-3,0-2.3-1.5-5.2-4.5-8.8l2.7-6.8,6.8,19.4ZM162.9,8.2c-1.2-.2-2.2-.4-3.1-.7-.9-.3-1.6-.6-2.1-1-.6-.4-1-.7-1.2-1.1-.3-.4-.4-.8-.4-1.1s.2-.9.7-1.2c.5-.3,1.2-.5,2.2-.5,2.6,0,3.8,1.3,3.8,3.9v1.8ZM174.4,11c.4.6.8,1.3,1.1,1.9.3.6.5,1.2.7,1.7.2.5.2,1,.2,1.5,0,.9-.3,1.5-.9,2-.6.5-1.4.7-2.4.7s-2.2-.5-2.5-1.4c-.3-.9-.1-2.2.6-4l1.8-4.4c.5.6,1,1.3,1.4,1.9Z"/>
    </g>
  </g>
  <g>
    <path class="st0" d="M161.3,26.2c0-.5,0-.8-.3-1.1-.2-.2-.5-.4-.9-.4s-.7,0-1,.3c-.3.2-.6.5-.8.9l-.6-.6c.3-.5.6-.9,1.1-1.1.4-.3.9-.4,1.4-.4s1.1.2,1.5.6c.4.4.5.9.5,1.5s0,.7-.2,1c-.1.3-.3.5-.4.8-.2.2-.4.4-.6.6-.2.2-.5.3-.7.5-.2.2-.5.3-.7.5-.2.1-.4.3-.6.5h3.3v1h-4.7c0-.3,0-.5.3-.7.2-.2.4-.4.7-.5.3-.2.6-.3.9-.5.3-.2.6-.4.9-.6.3-.2.5-.5.7-.9.2-.3.3-.8.3-1.3Z"/>
    <path class="st0" d="M165.2,27.3c0-.5,0-1,.2-1.4.1-.4.3-.8.5-1.1.2-.3.5-.5.8-.7.3-.2.7-.2,1.1-.2s.8,0,1.1.2c.3.2.6.4.8.7.2.3.4.7.5,1.1.1.4.2.9.2,1.4s0,1-.2,1.4c-.1.4-.3.8-.5,1.1-.2.3-.5.5-.8.7s-.7.2-1.1.2-.8,0-1.1-.2-.6-.4-.8-.7c-.2-.3-.4-.7-.5-1.1-.1-.4-.2-.9-.2-1.4ZM166.1,27.3c0,1.7.5,2.5,1.6,2.5s1.6-.8,1.6-2.5-.5-2.5-1.6-2.5-1.6.8-1.6,2.5Z"/>
    <path class="st0" d="M177,26.2c0-.5,0-.8-.3-1.1-.2-.2-.5-.4-.9-.4s-.7,0-1,.3c-.3.2-.6.5-.8.9l-.6-.6c.3-.5.6-.9,1.1-1.1.4-.3.9-.4,1.4-.4s1.1.2,1.5.6c.4.4.5.9.5,1.5s0,.7-.2,1c-.1.3-.3.5-.4.8-.2.2-.4.4-.6.6-.2.2-.5.3-.7.5-.2.2-.5.3-.7.5-.2.1-.4.3-.6.5h3.3v1h-4.7c0-.3,0-.5.3-.7.2-.2.4-.4.7-.5.3-.2.6-.3.9-.5.3-.2.6-.4.9-.6.3-.2.5-.5.7-.9.2-.3.3-.8.3-1.3Z"/>
    <path class="st0" d="M181.7,28.7c.2.4.5.7.8.9.3.2.7.3,1.1.3.9,0,1.4-.4,1.4-1.3s-.1-.9-.3-1.2c-.2-.3-.5-.4-.9-.4s-.9.2-1.3.6h-1v-3.7h4.1v.9h-3.1v2.4c.2-.2.5-.4.8-.5.3-.1.6-.2.9-.2s.5,0,.8.1c.2,0,.4.2.6.4.2.2.3.4.4.6,0,.3.1.5.1.8s0,.7-.2.9c-.1.3-.3.5-.5.6-.2.2-.5.3-.7.4-.3,0-.6.1-.9.1-.6,0-1.1-.1-1.5-.4-.4-.3-.8-.7-1.1-1.2l.7-.4Z"/>
  </g>
</svg>